<?xml version="1.0" standalone="no"?>
<!DOCTYPE svg PUBLIC "-//W3C//DTD SVG 20010904//EN"
 "http://www.w3.org/TR/2001/REC-SVG-20010904/DTD/svg10.dtd">
<svg version="1.0" xmlns="http://www.w3.org/2000/svg"
 width="126.000000pt" height="137.000000pt" viewBox="0 0 126.000000 137.000000"
 preserveAspectRatio="xMidYMid meet">

<g transform="translate(0.000000,137.000000) scale(0.100000,-0.100000)"
fill="#000000" stroke="none">
<path d="M189 1171 l-29 -29 0 -432 c0 -441 1 -458 39 -487 23 -18 829 -18
852 0 38 29 39 46 39 487 l0 432 -29 29 -29 29 -407 0 -407 0 -29 -29z m566
-145 c58 -25 113 -83 129 -136 14 -48 8 -129 -13 -169 -8 -13 -8 -22 -1 -26 6
-4 24 -30 40 -58 65 -114 23 -224 -105 -272 -81 -31 -274 -8 -353 43 -6 5 -23
64 -36 133 -29 152 -70 296 -91 319 -20 22 -19 30 13 66 39 44 94 83 149 105
60 24 205 21 268 -5z"/>
<path d="M650 824 c-8 -3 -22 -8 -30 -11 -9 -3 6 -11 35 -19 54 -14 65 -12 49
14 -12 18 -30 24 -54 16z"/>
<path d="M601 541 c-28 -5 -36 -12 -42 -35 l-8 -29 67 6 c97 8 158 39 100 51
-51 10 -85 12 -117 7z"/>
</g>
</svg>
